<svg width="38" height="25" viewBox="0 0 38 25" fill="none" xmlns="http://www.w3.org/2000/svg">
<path fill-rule="evenodd" clip-rule="evenodd" d="M2.23529 0C1.00077 0 0 0.987603 0 2.20588V22.7941C0 24.0124 1.00077 25 2.23529 25H35.7647C36.9992 25 38 24.0124 38 22.7941V2.20588C38 0.987603 36.9992 0 35.7647 0H2.23529ZM28.4118 3.9008C28.0402 3.30259 27.8376 2.97026 27.8038 2.90379C27.6349 2.63793 27.4153 2.45514 27.1451 2.35544C26.8748 2.25574 26.3175 2.20588 25.473 2.20588C25.1014 2.20588 24.7467 2.22251 24.409 2.25574C24.1387 2.28898 23.8685 2.33881 23.5982 2.40528C23.328 2.43851 23.1253 2.50498 22.9902 2.60468C23.3956 3.26935 23.8516 4.05036 24.3583 4.94766C24.8988 5.81174 25.4055 6.64258 25.8783 7.44019C26.4526 8.37072 27.0269 9.3345 27.6011 10.3315C27.7362 10.5974 27.9051 10.9131 28.1078 11.2787C28.3442 11.611 28.5638 11.9433 28.7665 12.2757C27.5504 13.4056 26.3175 14.5356 25.0677 15.6655C23.8178 16.7954 22.6524 17.8257 21.5715 18.7562C20.4905 19.6868 19.5785 20.4844 18.8353 21.1491C18.4741 21.456 18.1766 21.708 17.9431 21.905C17.6963 22.1133 17.5207 22.2601 17.4166 22.3455C17.349 22.3787 17.3321 22.4286 17.3659 22.495C17.3997 22.5615 17.501 22.628 17.6699 22.6944C17.805 22.7277 18.0246 22.7609 18.3286 22.7941C18.6326 22.7941 19.0549 22.7609 19.5953 22.6944C20.2372 22.628 20.7777 22.5615 21.2168 22.495C21.6559 22.3953 22.0275 22.2956 22.3315 22.1959C22.6355 22.0962 22.8888 21.9799 23.0915 21.847L23.8009 21.3485L32.7187 13.9706C32.9214 13.8044 33.0734 13.6549 33.1747 13.5219C33.2761 13.389 33.3605 13.2893 33.4281 13.2228C33.4956 13.1231 33.5294 13.0567 33.5294 13.0234C33.5294 12.9237 33.4618 12.7742 33.3267 12.5748C33.2254 12.3421 33.1409 12.1427 33.0734 11.9766C32.5667 11.0128 32.0093 10.0158 31.4013 8.98554C30.8271 7.92207 30.2697 6.9583 29.7292 6.09423C29.2225 5.23015 28.7834 4.49901 28.4118 3.9008ZM17.3659 14.0204C18.8185 13.9872 20.0176 13.9872 20.9634 14.0204C21.4026 14.0537 21.7404 13.9706 21.9768 13.7712C22.2133 13.5385 22.4328 13.1397 22.6355 12.5748C22.8382 11.9766 22.8888 11.5612 22.7875 11.3285C22.72 11.0959 22.4497 10.9463 21.9768 10.8799C20.8959 10.7802 19.7642 10.7137 18.582 10.6805C17.3997 10.614 15.9134 10.5974 14.1231 10.6306C13.2448 10.6306 12.3496 10.6472 11.4376 10.6805C10.5593 10.7137 9.74862 10.7635 9.00548 10.83C8.29613 10.8632 7.67118 10.9131 7.13073 10.9796C6.62402 11.046 6.28622 11.1125 6.11732 11.179C5.91467 11.2787 5.67819 11.5113 5.40796 11.8769C5.17153 12.2424 4.98571 12.5914 4.8506 12.9237C4.78306 13.1564 4.71548 13.4056 4.64795 13.6715C4.58037 13.9041 4.52971 14.1534 4.49592 14.4192C4.46213 14.6519 4.46213 14.9011 4.49592 15.167C5.40796 14.9011 6.37067 14.7017 7.38408 14.5688C8.39745 14.4359 9.32641 14.3361 10.1709 14.2697C11.1505 14.17 12.1132 14.1035 13.059 14.0703C14.4777 14.0371 15.9134 14.0204 17.3659 14.0204Z" fill="#50D890"/>
</svg>
