<svg width="350" height="125" viewBox="0 0 350 125" fill="none" xmlns="http://www.w3.org/2000/svg">
<path fill-rule="evenodd" clip-rule="evenodd" d="M0 15C0 6.71573 6.71573 0 15 0H110C118.284 0 125 6.71573 125 15V110C125 118.284 118.284 125 110 125H15C6.71573 125 0 118.284 0 110V15ZM43.8108 25.3477C43.8108 33.125 37.5061 39.4298 29.7288 39.4298C21.9515 39.4298 15.6467 33.125 15.6467 25.3477C15.6467 17.5704 21.9515 11.2656 29.7288 11.2656C37.5061 11.2656 43.8108 17.5704 43.8108 25.3477ZM95.4451 39.4298C103.222 39.4298 109.527 33.125 109.527 25.3477C109.527 17.5704 103.222 11.2656 95.4451 11.2656C87.6678 11.2656 81.363 17.5704 81.363 25.3477C81.363 33.125 87.6678 39.4298 95.4451 39.4298ZM43.8108 62.8999C43.8108 70.6772 37.5061 76.9819 29.7288 76.9819C21.9515 76.9819 15.6467 70.6772 15.6467 62.8999C15.6467 55.1225 21.9515 48.8178 29.7288 48.8178C37.5061 48.8178 43.8108 55.1225 43.8108 62.8999ZM95.4451 76.9819C103.222 76.9819 109.527 70.6772 109.527 62.8999C109.527 55.1225 103.222 48.8178 95.4451 48.8178C87.6678 48.8178 81.363 55.1225 81.363 62.8999C81.363 70.6772 87.6678 76.9819 95.4451 76.9819ZM43.8108 100.452C43.8108 108.229 37.5061 114.534 29.7288 114.534C21.9515 114.534 15.6467 108.229 15.6467 100.452C15.6467 92.6747 21.9515 86.3699 29.7288 86.3699C37.5061 86.3699 43.8108 92.6747 43.8108 100.452ZM95.4451 114.534C103.222 114.534 109.527 108.229 109.527 100.452C109.527 92.6747 103.222 86.3699 95.4451 86.3699C87.6678 86.3699 81.363 92.6747 81.363 100.452C81.363 108.229 87.6678 114.534 95.4451 114.534Z" fill="url(#paint0_radial)"/>
<path d="M157.072 40.9414H151.506V56H141.223V13.3438H158.01C163.068 13.3438 167.023 14.4668 169.875 16.7129C172.727 18.959 174.152 22.1328 174.152 26.2344C174.152 29.2031 173.547 31.6641 172.336 33.6172C171.145 35.5703 169.27 37.1523 166.711 38.3633L175.617 55.5605V56H164.602L157.072 40.9414ZM151.506 33.002H158.01C159.963 33.002 161.428 32.4941 162.404 31.4785C163.4 30.4434 163.898 29.0078 163.898 27.1719C163.898 25.3359 163.4 23.9004 162.404 22.8652C161.408 21.8105 159.943 21.2832 158.01 21.2832H151.506V33.002ZM216.486 35.5508C216.486 39.7109 215.715 43.3926 214.172 46.5957C212.629 49.7988 210.432 52.2695 207.58 54.0078C204.748 55.7266 201.516 56.5859 197.883 56.5859C194.25 56.5859 191.027 55.7559 188.215 54.0957C185.402 52.416 183.205 50.0234 181.623 46.918C180.061 43.8125 179.24 40.248 179.162 36.2246V33.8223C179.162 29.6426 179.924 25.9609 181.447 22.7773C182.99 19.5742 185.188 17.1035 188.039 15.3652C190.91 13.627 194.172 12.7578 197.824 12.7578C201.438 12.7578 204.66 13.6172 207.492 15.3359C210.324 17.0547 212.521 19.5059 214.084 22.6895C215.666 25.8535 216.467 29.4863 216.486 33.5879V35.5508ZM206.027 33.7637C206.027 29.5254 205.314 26.3125 203.889 24.125C202.482 21.918 200.461 20.8145 197.824 20.8145C192.668 20.8145 189.943 24.6816 189.65 32.416L189.621 35.5508C189.621 39.7305 190.314 42.9434 191.701 45.1895C193.088 47.4355 195.148 48.5586 197.883 48.5586C200.48 48.5586 202.482 47.4551 203.889 45.248C205.295 43.041 206.008 39.8672 206.027 35.7266V33.7637ZM232.072 48.0898H249.973V56H221.789V13.3438H232.072V48.0898ZM264.592 48.0898H282.492V56H254.309V13.3438H264.592V48.0898ZM147.111 87.5293C145.959 85.8887 145.051 84.3262 144.387 82.8418C143.742 81.3574 143.42 79.8242 143.42 78.2422C143.42 74.8047 144.533 72.0312 146.76 69.9219C148.986 67.793 151.896 66.7285 155.49 66.7285C158.713 66.7285 161.379 67.7148 163.488 69.6875C165.598 71.6406 166.652 74.0723 166.652 76.9824C166.652 80.6152 164.65 83.8379 160.646 86.6504L158.42 88.2031L164.982 95.7324C166.057 93.584 166.594 91.2305 166.594 88.6719H174.885C174.885 94.4336 173.557 99.0527 170.9 102.529L177.404 110H166.389L164.396 107.744C162.756 108.721 161.076 109.443 159.357 109.912C157.658 110.381 155.734 110.615 153.586 110.615C149.367 110.615 145.988 109.512 143.449 107.305C140.91 105.078 139.641 102.158 139.641 98.5449C139.641 96.5723 140.139 94.7852 141.135 93.1836C142.15 91.582 144.113 89.7168 147.023 87.5879L147.111 87.5293ZM154.23 102.998C155.949 102.998 157.59 102.598 159.152 101.797L151.477 93.0664L151.213 93.2422C150.1 94.6094 149.543 96.1523 149.543 97.8711C149.543 99.2969 149.992 100.508 150.891 101.504C151.789 102.5 152.902 102.998 154.23 102.998ZM151.945 78.125C151.945 79.4922 152.688 81.1523 154.172 83.1055L156.135 81.875C157.033 81.2891 157.688 80.6836 158.098 80.0586C158.508 79.4336 158.713 78.6426 158.713 77.6855C158.713 76.7871 158.4 76.0059 157.775 75.3418C157.15 74.6777 156.379 74.3457 155.461 74.3457C154.367 74.3457 153.508 74.6973 152.883 75.4004C152.258 76.084 151.945 76.9922 151.945 78.125ZM206.877 95.5273V110H196.594V67.3438H213.615C216.877 67.3438 219.758 67.9492 222.258 69.1602C224.777 70.3516 226.721 72.0605 228.088 74.2871C229.475 76.4941 230.168 79.0039 230.168 81.8164C230.168 85.9766 228.674 89.3066 225.686 91.8066C222.717 94.2871 218.635 95.5273 213.439 95.5273H206.877ZM206.877 87.5879H213.615C215.607 87.5879 217.121 87.0898 218.156 86.0938C219.211 85.0977 219.738 83.6914 219.738 81.875C219.738 79.8828 219.201 78.291 218.127 77.0996C217.053 75.9082 215.588 75.3027 213.732 75.2832H206.877V87.5879ZM245.959 102.09H263.859V110H235.676V67.3438H245.959V102.09ZM293.01 102.031H278.918L276.457 110H265.471L281.115 67.3438H290.783L306.545 110H295.5L293.01 102.031ZM281.379 94.0918H290.549L285.949 79.2969L281.379 94.0918ZM320.9 85.8594L328.752 67.3438H339.855L326.115 94.6777V110H315.686V94.6777L301.975 67.3438H313.02L320.9 85.8594Z" fill="#FCFBE3"/>
<defs>
<radialGradient id="paint0_radial" cx="0" cy="0" r="1" gradientUnits="userSpaceOnUse" gradientTransform="translate(0 125) rotate(-45) scale(176.777)">
<stop stop-color="#E0FF8B"/>
<stop offset="0.78125" stop-color="#50D890"/>
</radialGradient>
</defs>
</svg>
